<svg xmlns="http://www.w3.org/2000/svg" aria-hidden="true" style="position:absolute;width:0;height:0;overflow:hidden">
  <defs>
    <symbol id="icon-iconmonstr-angel-up-circle-thin" viewBox="0 0 32 32">
      <path d="M16 0C7.169 0 0 7.169 0 16s7.169 16 16 16 16-7.169 16-16S24.831 0 16 0zm0 1.333c8.095 0 14.667 6.572 14.667 14.667S24.095 30.667 16 30.667 1.333 24.095 1.333 16 7.905 1.333 16 1.333zm6.996 20L16 12.746l-7.017 8.587L8 20.429l8-9.763 8 9.78-1.004.887z"/>
    </symbol>
    <symbol id="icon-iconmonstr-angel-up-thin" viewBox="0 0 32 32">
      <path d="M30.993 26.667 16 7.502 1.041 26.667 0 25.842 16 5.334l16 20.521-1.007.812z"/>
    </symbol>
    <symbol id="icon-iconmonstr-arrow-up-lined" viewBox="0 0 32 32">
      <path d="m25.049 12.631-8.345-8.34a1 1 0 0 0-1.415 0 44712.94 44712.94 0 0 1-8.341 8.336.981.981 0 0 0-.289.709.99.99 0 0 0 .295.7.994.994 0 0 0 1.408.005l6.636-6.635v19.589a1 1 0 0 0 2 0V7.406l6.637 6.637a.994.994 0 0 0 1.407-.008c.193-.193.292-.447.295-.7a.975.975 0 0 0-.287-.705z"/>
    </symbol>
    <symbol id="icon-iconmonstr-caret-up-filled" viewBox="0 0 32 32">
      <path d="M22.457 18.385a1.001 1.001 0 0 1-.79 1.615H10.332a1.001 1.001 0 0 1-.788-1.616l5.677-7.331a.995.995 0 0 1 1.577.001l5.657 7.331z"/>
    </symbol>
    <symbol id="icon-iconmonstr-email-10" viewBox="0 0 32 32">
      <path d="M16 .027c-8.836 0-16 7.164-16 16s7.164 16 16 16 16-7.164 16-16-7.164-16-16-16zm9.32 9.306L16 16.888 6.679 9.333H25.32zm.013 13.334H6.666v-11.34l9.333 7.564 9.333-7.563v11.339z"/>
    </symbol>
    <symbol id="icon-iconmonstr-github-1" viewBox="0 0 32 32">
      <path d="M16 0C7.165 0 0 7.164 0 16c0 7.069 4.584 13.067 10.943 15.183.799.148 1.057-.348 1.057-.769v-2.979c-4.451.968-5.377-1.888-5.377-1.888-.728-1.849-1.777-2.341-1.777-2.341-1.452-.993.111-.972.111-.972 1.607.112 2.452 1.649 2.452 1.649 1.427 2.445 3.743 1.739 4.656 1.329.143-1.033.557-1.74 1.016-2.139-3.553-.407-7.289-1.779-7.289-7.908 0-1.748.625-3.175 1.648-4.295-.165-.404-.713-2.032.156-4.235 0 0 1.344-.429 4.401 1.64a15.345 15.345 0 0 1 4.004-.539c1.36.007 2.729.184 4.008.539 3.055-2.069 4.396-1.64 4.396-1.64.871 2.204.323 3.832.157 4.235 1.027 1.12 1.647 2.548 1.647 4.295 0 6.145-3.743 7.499-7.305 7.895.573.496 1.097 1.469 1.097 2.963v4.391c0 .425.256.925 1.068.768 6.353-2.119 10.932-8.115 10.932-15.181 0-8.836-7.164-16-16-16z"/>
    </symbol>
    <symbol id="icon-iconmonstr-globe-5" viewBox="0 0 32 32">
      <path d="M17.525 10.895c-.047-.088.456-.136.545-.136.099.012-.261.603-.545.136zm-2.869-4.096.144-.041c.085.073-.096.127-.068.181.115.207.028.331.011.443-.019.113-.139.064-.199.124-.071.088.344.1.349.113.015.044-.5.119-.405.228.128.181 1.099-.26.944-.235.3-.151.039-.167-.129-.253-.057-.287-.105-.729-.284-.907l.117-.136c-.275-.399-.48.483-.48.483zM32 16c0 8.836-7.164 16-16 16-8.837 0-16-7.164-16-16S7.163 0 16 0c8.836 0 16 7.164 16 16zM20.92 8.839c-.008-.195-.253-.379-.509-.041-.18.232-.148.585-.245.743-.139.233.756.452.756.232.033-.369.976-.084 1.16-.033.331.092.857-.301.281-.508-.473-.173-.723-.359-.765-.697 0 0 .251-.235.141-.221-.291.036-.819 1.048-.819.527zM29.315 16c0-1.38-.236-2.773-.476-3.509a.814.814 0 0 0-.479-.504c-.341-.133-1.783.796-2 .339-.143-.305-.432.195-.763.011-.16-.088-.605-.687-.807-.613-.412.148.632 1.285.917 1.435.268-.203 1.136-.62 1.323-.051.357 1.072-.983 2.247-1.668 2.865-1.024.925-.832-.599-1.529-1.136-.367-.281-.363-.88-.733-1.087-.165-.093-.924-.967-.917-1.084l-.023.221c-.125.095-.392-.357-.42-.428 0 .393.64 1.02.852 1.335.361.54.555 1.327.997 1.768.237.237 1.144 1.219 1.38 1.197.257-.023 1.071-.611 1.215-.577.859.203-2.021 4.273-2.295 4.777-.225.423.184 1.468.151 1.968-.039.577-.493.764-.924 1.079-.461.337-.353.993-.741 1.233-.689.424-1.185 1.804-2.164 1.797-.288-.001-1.52.48-1.681.009-.125-.341-.293-.6-.471-.937-.173-.331-.02-.673-.231-.965-.145-.203-.633-.663-.677-.903-.003-.207.156-.835.373-.944.305-.156.059-.611.021-.875-.064-.472-.356-.861-.707-1.135-.519-.399-.251-.716-.129-1.285 0-.272-.165-.629-.531-.523-.752.219-.524-.587-1.072-.551-.395.028-.717.279-1.084.389-.461.139-.933-.109-1.389-.167-1.876-.237-2.488-2.381-1.999-3.928.049-.253-.152-.723-.064-.919.211-.469.64-.996 1.016-1.352.211-.2.481-.149.729-.305.383-.241.388-.737.763-1.041.533-.433 1.261-.424 1.957-.517.371-.049 1.781-.355 2.004-.08 0 .051.255.805-.025.763.577.031 1.4.999 1.948.772.281-.117.179-.981.756-.564.349.251 1.915.363 2.24.092.2-.165.312-1.24.069-1.361.155.153-.815.165-.905.131-.16-.059-.309.152-.567.033.155.073-.861-.472-.291-.889-.239.175-.461-.049-.719.143-.177.144.083.24-.171.365-.403.204-.707-.7-.859-.803-.155-.101-1.352-.941-1.027-.393l1.052 1.047c-.052.033-.276-.381-.276-.079.071-.18.027.772-.139.463-.073-.119.12-.185.008-.357 0-.113-.304-.224-.363-.301-.167-.207-.609-.663-.849-.772-.067-.031-1.019.116-1.099.147a2.442 2.442 0 0 0-.239.415 2.702 2.702 0 0 0-.559.285l-.209.471c-.091.081-1.02.388-1.025.4.039-.1-.649-.228-.604-.428.051-.22.284-.907.224-1.157-.064-.263 1.432.379 1.528-.313.039-.3.061-.649-.417-.7.091.011.927-.328 1.065-.48.195-.224.641-.589.965-.589.379 0 .297-.551.472-.82.175.071-.093.501.116.676-.013-.137.593.076.652.044.139-.072.912-.029.792-.392-.133-.369.068-.26.241-.337-.029.012.453-.825.536-.551-.057-.283-.561.099-.737.084-.407-.032-.235-.693-.081-.887.119-.153-.324-.341-.329-.048-.008.439-.416.836-.321 1.419.144.879-.98-.212-1.079-.152-.373.227-.679-.285-.485-.592.197-.313.673-.299.869-.635.139-.237.3-.513.513-.693.713-.599.911-.12 1.621-.055.695.064.235.165.139.432-.092.253.381.344.545.132.093-.123.305-.431.397-.659.119-.296 1.201-.263.445-.715-.499-.297-2.672-.896-4.128-.896-.315 0-.535.351-.775.549-.475.393-1.691 1.165-2.367.931-.692-.239-2.173.88-2.411.888-.087.005.005-.845.477-.908-.204.031 1.663-.943 1.612-1.145-.061-.24-3.732 1.096-3.568 1.364.079.123.399.123-.021.392-.24.145-.496 1.068-.721 1.068-.673.295-.716-.58-1.465.545l-1.192.48a13.275 13.275 0 0 0-3.44 6.911c-.017.105.445.301.505.373.149.179.149.949.223 1.201.184.637.639.992.987 1.572.205.345.547 1.219.439 1.581.144-.237 1.427 1.087 1.661 1.363.552.649.977 1.436.081 2.079-.289.208.44 1.505.064 1.824l-.481.124c-.475.292-.26 1.008.028 1.309a13.28 13.28 0 0 0 9.627 4.116c7.356 0 13.319-5.963 13.319-13.319zM13.972 7.524c.167-.073.391-.071.415-.293.02-.197.059-.061.107-.133.047-.071-.089-.184-.147-.195-.085-.019-.144.092-.199.139l-.096.025-.091.116.011.064-.116.141c-.113.112.003.185.116.136z"/>
    </symbol>
    <symbol id="icon-iconmonstr-line-three-horizontal-lined" viewBox="0 0 32 32">
      <path d="M28 21a1 1 0 0 0-1-1H5a1 1 0 0 0 0 2h22a1 1 0 0 0 1-1zm0-5.333a1 1 0 0 0-1-1H5a1 1 0 0 0 0 2h22a1 1 0 0 0 1-1zm0-5.334a1 1 0 0 0-1-1H5a1 1 0 0 0 0 2h22a1 1 0 0 0 1-1z"/>
    </symbol>
    <symbol id="icon-iconmonstr-linkedin-3" viewBox="0 0 32 32">
      <path d="M25.333 0H6.666A6.668 6.668 0 0 0-.001 6.667v18.667a6.668 6.668 0 0 0 6.667 6.667h18.667A6.666 6.666 0 0 0 32 25.334V6.667A6.667 6.667 0 0 0 25.333 0zM10.667 25.333h-4V10.666h4v14.667zm-2-16.357c-1.288 0-2.333-1.053-2.333-2.352s1.045-2.352 2.333-2.352S11 5.325 11 6.624 9.956 8.976 8.667 8.976zm18 16.357h-4v-7.472c0-4.491-5.333-4.151-5.333 0v7.472h-4V10.666h4v2.353c1.861-3.448 9.333-3.703 9.333 3.301v9.012z"/>
    </symbol>
    <symbol id="icon-iconmonstr-phone-8" viewBox="0 0 32 32">
      <path d="M16 0C7.164 0 0 7.164 0 16s7.164 16 16 16 16-7.164 16-16S24.836 0 16 0zm4.593 23.769C15.681 26.014 8.058 11.196 12.86 8.692L14.264 8l2.328 4.545-1.389.684c-1.46.783 1.58 6.72 3.073 5.996l1.376-.673 2.347 4.529-1.405.688z"/>
    </symbol>
    <symbol id="icon-iconmonstr-telegram-4" viewBox="0 0 32 32">
      <path d="M16 0c8.836 0 16 7.163 16 16 0 8.836-7.164 16-16 16-8.835 0-16-7.164-16-16C0 7.163 7.165 0 16 0zm4.299 23.828a.929.929 0 0 0 .861.113.904.904 0 0 0 .563-.655c.676-3.176 2.316-11.216 2.931-14.104a.61.61 0 0 0-.201-.591.626.626 0 0 0-.62-.109c-3.261 1.208-13.305 4.976-17.411 6.495a.645.645 0 0 0-.421.623.643.643 0 0 0 .461.593c1.841.551 4.257 1.317 4.257 1.317s1.129 3.411 1.717 5.144a.682.682 0 0 0 .469.448.674.674 0 0 0 .632-.161l2.407-2.272s2.779 2.036 4.355 3.159zm-8.564-6.749 1.307 4.308.291-2.728s5.044-4.551 7.921-7.144c.084-.076.095-.204.025-.293s-.197-.111-.292-.049l-9.252 5.907z"/>
    </symbol>
    <symbol id="icon-iconmonstr-telegram-5" viewBox="0 0 32 32">
      <path d="M16 0C7.164 0 0 7.164 0 16s7.164 16 16 16 16-7.164 16-16S24.836 0 16 0zm0 2.667c7.352 0 13.333 5.981 13.333 13.333S23.352 29.333 16 29.333 2.667 23.352 2.667 16 8.648 2.667 16 2.667zm3.589 19.852c.215.153.491.191.737.097s.429-.304.483-.56c.58-2.723 1.985-9.615 2.512-12.091a.518.518 0 0 0-.172-.505.538.538 0 0 0-.532-.093c-2.795 1.035-11.404 4.264-14.923 5.567a.55.55 0 0 0 .034 1.041c1.579.472 3.651 1.129 3.651 1.129s.967 2.924 1.472 4.411a.573.573 0 0 0 .942.246l2.064-1.948s2.381 1.745 3.732 2.707zm-7.34-5.784 1.12 3.692.248-2.339 6.789-6.124a.183.183 0 0 0 .023-.251.19.19 0 0 0-.251-.043l-7.929 5.064z"/>
    </symbol>
    <symbol id="icon-iconmonstr-x-mark-circle-lined" viewBox="0 0 32 32">
      <path d="M16.003 2.673c7.357 0 13.331 5.973 13.331 13.329 0 7.357-5.973 13.331-13.331 13.331-7.356 0-13.329-5.973-13.329-13.331 0-7.356 5.973-13.329 13.329-13.329zm0 2c-6.253 0-11.329 5.076-11.329 11.329S9.75 27.333 16.003 27.333s11.331-5.077 11.331-11.331S22.257 4.673 16.003 4.673zm0 9.9 3.623-3.624a.999.999 0 1 1 1.416 1.416l-3.623 3.623 3.636 3.637a1 1 0 0 1-1.414 1.416l-3.639-3.637-3.637 3.637a1.001 1.001 0 0 1-1.415-1.416l3.637-3.637-3.629-3.629a.998.998 0 0 1 .708-1.707c.256 0 .513.097.708.292z"/>
    </symbol>
    <symbol id="icon-iconmonstr-x-mark-lined" viewBox="0 0 32 32">
      <path d="m16 14.573 7.625-7.627a.998.998 0 0 1 .708-.292 1 1 0 0 1 .708 1.708l-7.627 7.625 7.625 7.625a1 1 0 0 1-1.415 1.416l-7.625-7.625-7.625 7.625a1 1 0 0 1-1.415-1.416l7.625-7.625-7.627-7.625a1 1 0 0 1 1.416-1.416z"/>
    </symbol>
    <symbol id="icon-icons8-linkedin" viewBox="0 0 32 32">
      <path d="M26.24 2.56H5.76a3.202 3.202 0 0 0-3.2 3.2v20.48c0 1.766 1.434 3.2 3.2 3.2h20.48c1.766 0 3.2-1.434 3.2-3.2V5.76c0-1.766-1.434-3.2-3.2-3.2zM10.88 12.8v12.16H7.04V12.8h3.84zM7.04 9.261c0-.896.768-1.581 1.92-1.581s1.875.685 1.92 1.581c0 .896-.717 1.619-1.92 1.619-1.152 0-1.92-.723-1.92-1.619zM24.96 24.96h-3.84v-6.4c0-1.28-.64-2.56-2.24-2.586h-.051c-1.549 0-2.189 1.318-2.189 2.586v6.4H12.8V12.8h3.84v1.638s1.235-1.638 3.718-1.638c2.541 0 4.602 1.747 4.602 5.286v6.874z"/>
    </symbol>
    <symbol id="icon-iconmonstr-angel-up-circle-thin1" viewBox="0 0 32 32">
      <path d="M16 0C7.169 0 0 7.169 0 16s7.169 16 16 16 16-7.169 16-16S24.831 0 16 0zm0 1.333c8.095 0 14.667 6.572 14.667 14.667S24.095 30.667 16 30.667 1.333 24.095 1.333 16 7.905 1.333 16 1.333zm6.996 20L16 12.746l-7.017 8.587L8 20.429l8-9.763 8 9.78-1.004.887z"/>
    </symbol>
    <symbol id="icon-iconmonstr-angel-up-thin1" viewBox="0 0 32 32">
      <path d="M30.993 26.667 16 7.502 1.041 26.667 0 25.842 16 5.334l16 20.521-1.007.812z"/>
    </symbol>
    <symbol id="icon-iconmonstr-arrow-up-lined1" viewBox="0 0 32 32">
      <path d="m25.049 12.631-8.345-8.34a1 1 0 0 0-1.415 0 44712.94 44712.94 0 0 1-8.341 8.336.981.981 0 0 0-.289.709.99.99 0 0 0 .295.7.994.994 0 0 0 1.408.005l6.636-6.635v19.589a1 1 0 0 0 2 0V7.406l6.637 6.637a.994.994 0 0 0 1.407-.008c.193-.193.292-.447.295-.7a.975.975 0 0 0-.287-.705z"/>
    </symbol>
    <symbol id="icon-iconmonstr-caret-up-filled1" viewBox="0 0 32 32">
      <path d="M22.457 18.385a1.001 1.001 0 0 1-.79 1.615H10.332a1.001 1.001 0 0 1-.788-1.616l5.677-7.331a.995.995 0 0 1 1.577.001l5.657 7.331z"/>
    </symbol>
    <symbol id="icon-iconmonstr-email-101" viewBox="0 0 32 32">
      <path d="M16 .027c-8.836 0-16 7.164-16 16s7.164 16 16 16 16-7.164 16-16-7.164-16-16-16zm9.32 9.306L16 16.888 6.679 9.333H25.32zm.013 13.334H6.666v-11.34l9.333 7.564 9.333-7.563v11.339z"/>
    </symbol>
    <symbol id="icon-iconmonstr-github-11" viewBox="0 0 32 32">
      <path d="M16 0C7.165 0 0 7.164 0 16c0 7.069 4.584 13.067 10.943 15.183.799.148 1.057-.348 1.057-.769v-2.979c-4.451.968-5.377-1.888-5.377-1.888-.728-1.849-1.777-2.341-1.777-2.341-1.452-.993.111-.972.111-.972 1.607.112 2.452 1.649 2.452 1.649 1.427 2.445 3.743 1.739 4.656 1.329.143-1.033.557-1.74 1.016-2.139-3.553-.407-7.289-1.779-7.289-7.908 0-1.748.625-3.175 1.648-4.295-.165-.404-.713-2.032.156-4.235 0 0 1.344-.429 4.401 1.64a15.345 15.345 0 0 1 4.004-.539c1.36.007 2.729.184 4.008.539 3.055-2.069 4.396-1.64 4.396-1.64.871 2.204.323 3.832.157 4.235 1.027 1.12 1.647 2.548 1.647 4.295 0 6.145-3.743 7.499-7.305 7.895.573.496 1.097 1.469 1.097 2.963v4.391c0 .425.256.925 1.068.768 6.353-2.119 10.932-8.115 10.932-15.181 0-8.836-7.164-16-16-16z"/>
    </symbol>
    <symbol id="icon-iconmonstr-globe-51" viewBox="0 0 32 32">
      <path d="M17.525 10.895c-.047-.088.456-.136.545-.136.099.012-.261.603-.545.136zm-2.869-4.096.144-.041c.085.073-.096.127-.068.181.115.207.028.331.011.443-.019.113-.139.064-.199.124-.071.088.344.1.349.113.015.044-.5.119-.405.228.128.181 1.099-.26.944-.235.3-.151.039-.167-.129-.253-.057-.287-.105-.729-.284-.907l.117-.136c-.275-.399-.48.483-.48.483zM32 16c0 8.836-7.164 16-16 16-8.837 0-16-7.164-16-16S7.163 0 16 0c8.836 0 16 7.164 16 16zM20.92 8.839c-.008-.195-.253-.379-.509-.041-.18.232-.148.585-.245.743-.139.233.756.452.756.232.033-.369.976-.084 1.16-.033.331.092.857-.301.281-.508-.473-.173-.723-.359-.765-.697 0 0 .251-.235.141-.221-.291.036-.819 1.048-.819.527zM29.315 16c0-1.38-.236-2.773-.476-3.509a.814.814 0 0 0-.479-.504c-.341-.133-1.783.796-2 .339-.143-.305-.432.195-.763.011-.16-.088-.605-.687-.807-.613-.412.148.632 1.285.917 1.435.268-.203 1.136-.62 1.323-.051.357 1.072-.983 2.247-1.668 2.865-1.024.925-.832-.599-1.529-1.136-.367-.281-.363-.88-.733-1.087-.165-.093-.924-.967-.917-1.084l-.023.221c-.125.095-.392-.357-.42-.428 0 .393.64 1.02.852 1.335.361.54.555 1.327.997 1.768.237.237 1.144 1.219 1.38 1.197.257-.023 1.071-.611 1.215-.577.859.203-2.021 4.273-2.295 4.777-.225.423.184 1.468.151 1.968-.039.577-.493.764-.924 1.079-.461.337-.353.993-.741 1.233-.689.424-1.185 1.804-2.164 1.797-.288-.001-1.52.48-1.681.009-.125-.341-.293-.6-.471-.937-.173-.331-.02-.673-.231-.965-.145-.203-.633-.663-.677-.903-.003-.207.156-.835.373-.944.305-.156.059-.611.021-.875-.064-.472-.356-.861-.707-1.135-.519-.399-.251-.716-.129-1.285 0-.272-.165-.629-.531-.523-.752.219-.524-.587-1.072-.551-.395.028-.717.279-1.084.389-.461.139-.933-.109-1.389-.167-1.876-.237-2.488-2.381-1.999-3.928.049-.253-.152-.723-.064-.919.211-.469.64-.996 1.016-1.352.211-.2.481-.149.729-.305.383-.241.388-.737.763-1.041.533-.433 1.261-.424 1.957-.517.371-.049 1.781-.355 2.004-.08 0 .051.255.805-.025.763.577.031 1.4.999 1.948.772.281-.117.179-.981.756-.564.349.251 1.915.363 2.24.092.2-.165.312-1.24.069-1.361.155.153-.815.165-.905.131-.16-.059-.309.152-.567.033.155.073-.861-.472-.291-.889-.239.175-.461-.049-.719.143-.177.144.083.24-.171.365-.403.204-.707-.7-.859-.803-.155-.101-1.352-.941-1.027-.393l1.052 1.047c-.052.033-.276-.381-.276-.079.071-.18.027.772-.139.463-.073-.119.12-.185.008-.357 0-.113-.304-.224-.363-.301-.167-.207-.609-.663-.849-.772-.067-.031-1.019.116-1.099.147a2.442 2.442 0 0 0-.239.415 2.702 2.702 0 0 0-.559.285l-.209.471c-.091.081-1.02.388-1.025.4.039-.1-.649-.228-.604-.428.051-.22.284-.907.224-1.157-.064-.263 1.432.379 1.528-.313.039-.3.061-.649-.417-.7.091.011.927-.328 1.065-.48.195-.224.641-.589.965-.589.379 0 .297-.551.472-.82.175.071-.093.501.116.676-.013-.137.593.076.652.044.139-.072.912-.029.792-.392-.133-.369.068-.26.241-.337-.029.012.453-.825.536-.551-.057-.283-.561.099-.737.084-.407-.032-.235-.693-.081-.887.119-.153-.324-.341-.329-.048-.008.439-.416.836-.321 1.419.144.879-.98-.212-1.079-.152-.373.227-.679-.285-.485-.592.197-.313.673-.299.869-.635.139-.237.3-.513.513-.693.713-.599.911-.12 1.621-.055.695.064.235.165.139.432-.092.253.381.344.545.132.093-.123.305-.431.397-.659.119-.296 1.201-.263.445-.715-.499-.297-2.672-.896-4.128-.896-.315 0-.535.351-.775.549-.475.393-1.691 1.165-2.367.931-.692-.239-2.173.88-2.411.888-.087.005.005-.845.477-.908-.204.031 1.663-.943 1.612-1.145-.061-.24-3.732 1.096-3.568 1.364.079.123.399.123-.021.392-.24.145-.496 1.068-.721 1.068-.673.295-.716-.58-1.465.545l-1.192.48a13.275 13.275 0 0 0-3.44 6.911c-.017.105.445.301.505.373.149.179.149.949.223 1.201.184.637.639.992.987 1.572.205.345.547 1.219.439 1.581.144-.237 1.427 1.087 1.661 1.363.552.649.977 1.436.081 2.079-.289.208.44 1.505.064 1.824l-.481.124c-.475.292-.26 1.008.028 1.309a13.28 13.28 0 0 0 9.627 4.116c7.356 0 13.319-5.963 13.319-13.319zM13.972 7.524c.167-.073.391-.071.415-.293.02-.197.059-.061.107-.133.047-.071-.089-.184-.147-.195-.085-.019-.144.092-.199.139l-.096.025-.091.116.011.064-.116.141c-.113.112.003.185.116.136z"/>
    </symbol>
    <symbol id="icon-iconmonstr-linkedin-31" viewBox="0 0 32 32">
      <path d="M25.333 0H6.666A6.668 6.668 0 0 0-.001 6.667v18.667a6.668 6.668 0 0 0 6.667 6.667h18.667A6.666 6.666 0 0 0 32 25.334V6.667A6.667 6.667 0 0 0 25.333 0zM10.667 25.333h-4V10.666h4v14.667zm-2-16.357c-1.288 0-2.333-1.053-2.333-2.352s1.045-2.352 2.333-2.352S11 5.325 11 6.624 9.956 8.976 8.667 8.976zm18 16.357h-4v-7.472c0-4.491-5.333-4.151-5.333 0v7.472h-4V10.666h4v2.353c1.861-3.448 9.333-3.703 9.333 3.301v9.012z"/>
    </symbol>
    <symbol id="icon-iconmonstr-phone-81" viewBox="0 0 32 32">
      <path d="M16 0C7.164 0 0 7.164 0 16s7.164 16 16 16 16-7.164 16-16S24.836 0 16 0zm4.593 23.769C15.681 26.014 8.058 11.196 12.86 8.692L14.264 8l2.328 4.545-1.389.684c-1.46.783 1.58 6.72 3.073 5.996l1.376-.673 2.347 4.529-1.405.688z"/>
    </symbol>
    <symbol id="icon-iconmonstr-telegram-41" viewBox="0 0 32 32">
      <path d="M16 0c8.836 0 16 7.163 16 16 0 8.836-7.164 16-16 16-8.835 0-16-7.164-16-16C0 7.163 7.165 0 16 0zm4.299 23.828a.929.929 0 0 0 .861.113.904.904 0 0 0 .563-.655c.676-3.176 2.316-11.216 2.931-14.104a.61.61 0 0 0-.201-.591.626.626 0 0 0-.62-.109c-3.261 1.208-13.305 4.976-17.411 6.495a.645.645 0 0 0-.421.623.643.643 0 0 0 .461.593c1.841.551 4.257 1.317 4.257 1.317s1.129 3.411 1.717 5.144a.682.682 0 0 0 .469.448.674.674 0 0 0 .632-.161l2.407-2.272s2.779 2.036 4.355 3.159zm-8.564-6.749 1.307 4.308.291-2.728s5.044-4.551 7.921-7.144c.084-.076.095-.204.025-.293s-.197-.111-.292-.049l-9.252 5.907z"/>
    </symbol>
    <symbol id="icon-iconmonstr-telegram-51" viewBox="0 0 32 32">
      <path d="M16 0C7.164 0 0 7.164 0 16s7.164 16 16 16 16-7.164 16-16S24.836 0 16 0zm0 2.667c7.352 0 13.333 5.981 13.333 13.333S23.352 29.333 16 29.333 2.667 23.352 2.667 16 8.648 2.667 16 2.667zm3.589 19.852c.215.153.491.191.737.097s.429-.304.483-.56c.58-2.723 1.985-9.615 2.512-12.091a.518.518 0 0 0-.172-.505.538.538 0 0 0-.532-.093c-2.795 1.035-11.404 4.264-14.923 5.567a.55.55 0 0 0 .034 1.041c1.579.472 3.651 1.129 3.651 1.129s.967 2.924 1.472 4.411a.573.573 0 0 0 .942.246l2.064-1.948s2.381 1.745 3.732 2.707zm-7.34-5.784 1.12 3.692.248-2.339 6.789-6.124a.183.183 0 0 0 .023-.251.19.19 0 0 0-.251-.043l-7.929 5.064z"/>
    </symbol>
    <symbol id="icon-icons8-linkedin1" viewBox="0 0 32 32">
      <path d="M26.24 2.56H5.76a3.202 3.202 0 0 0-3.2 3.2v20.48c0 1.766 1.434 3.2 3.2 3.2h20.48c1.766 0 3.2-1.434 3.2-3.2V5.76c0-1.766-1.434-3.2-3.2-3.2zM10.88 12.8v12.16H7.04V12.8h3.84zM7.04 9.261c0-.896.768-1.581 1.92-1.581s1.875.685 1.92 1.581c0 .896-.717 1.619-1.92 1.619-1.152 0-1.92-.723-1.92-1.619zM24.96 24.96h-3.84v-6.4c0-1.28-.64-2.56-2.24-2.586h-.051c-1.549 0-2.189 1.318-2.189 2.586v6.4H12.8V12.8h3.84v1.638s1.235-1.638 3.718-1.638c2.541 0 4.602 1.747 4.602 5.286v6.874z"/>
    </symbol>
    <symbol id="icon-iconmonstr-navigation-4" viewBox="0 0 32 32">
      <path d="M16 0C7.164 0 0 7.164 0 16s7.164 16 16 16 16-7.164 16-16S24.836 0 16 0zm.676 25.333-2.009-8-8-2 16-6-5.991 16z"/>
    </symbol>
  </defs>
</svg>
