<svg xmlns="http://www.w3.org/2000/svg" aria-hidden="true" style="position:absolute;width:0;height:0;overflow:hidden">
  <defs>
    <symbol id="icon-iconmonstr-location-1-1" viewBox="0 0 32 32">
      <path d="M16 0C10.403 0 5.333 4.537 5.333 10.136 5.333 15.733 9.958 22.416 16 32c6.041-9.584 10.667-16.267 10.667-21.864C26.667 4.537 21.599 0 16 0zm0 14.667a4 4 0 1 1 0-8 4 4 0 0 1 0 8z"/>
    </symbol>
    <symbol id="icon-portfolio" viewBox="0 0 56 32">
      <path fill="#00b068" d="M2 3h5.157c3.329 0 5.578.15 6.746.45 1.179.3 2.074.792 2.685 1.477s.993 1.451 1.146 2.296c.153.835.229 2.484.229 4.946v9.106c0 2.334-.115 3.897-.344 4.689-.218.782-.606 1.397-1.162 1.847-.557.439-1.244.749-2.063.931-.819.171-2.052.257-3.7.257H2v-26zm6.893 4.448v17.103c.993 0 1.605-.193 1.834-.578.229-.396.344-1.461.344-3.196V10.676c0-1.178-.038-1.932-.115-2.264s-.251-.573-.524-.723c-.273-.161-.786-.241-1.539-.241zM22.106 3H33.6v5.203h-4.601v4.93h4.306v4.946h-4.306v5.717h5.059v5.203H22.106v-26zM54 3l-3.504 26H40.034L36.055 3h7.269c.841 7.162 1.441 13.217 1.801 18.163.36-5 .737-9.443 1.13-13.329L46.73 3H54z" style="fill:var(--color1, #00b068)"/>
    </symbol>
    <symbol id="icon-yacht" viewBox="0 0 32 32">
      <path fill="#1b414b" d="M8 0h16a8 8 0 0 1 8 8v16a8 8 0 0 1-8 8H8a8 8 0 0 1-8-8V8a8 8 0 0 1 8-8z" style="fill:var(--color2, #1b414b)"/>
      <path fill="#fbfbfb" d="M7.37 10.818h1.744l2.66 4.629h.11l2.66-4.629h1.744l-3.694 6.185V21h-1.53v-3.997l-3.695-6.185zM17.14 21h-1.63l3.663-10.182h1.775L24.612 21h-1.63l-2.88-8.332h-.079L17.14 21zm.273-3.987h5.29v1.292h-5.29v-1.292z" style="fill:var(--color3, #fbfbfb)"/>
    </symbol>
  </defs>
</svg>
